<svg xmlns="http://www.w3.org/2000/svg" version="1.1" viewBox="0.00 0.00 588.00 463.00" width="588.00" height="463.00">
<g stroke-width="2.00" fill="none" stroke-linecap="butt">
<path stroke="#80accc" d="&#10;  M 88.9159 79.9359&#10;  A 2.47 2.47 0.0 0 0 86.4416 77.4702&#10;  L 40.6217 77.5501&#10;  A 2.47 2.47 0.0 0 0 38.1560 80.0244&#10;  L 38.5041 279.4641&#10;  A 2.47 2.47 0.0 0 0 40.9784 281.9298&#10;  L 86.7983 281.8499&#10;  A 2.47 2.47 0.0 0 0 89.2640 279.3756&#10;  L 88.9159 79.9359"/>
<path stroke="#80accc" d="&#10;  M 247.90 281.83&#10;  A 3.10 3.10 0.0 0 0 250.82 277.70&#10;  L 181.45 79.93&#10;  A 3.10 3.10 0.0 0 0 178.52 77.86&#10;  L 128.66 77.86&#10;  A 3.10 3.10 0.0 0 0 125.77 82.09&#10;  L 203.15 279.86&#10;  A 3.10 3.10 0.0 0 0 206.04 281.83&#10;  L 247.90 281.83"/>
<path stroke="#80accc" d="&#10;  M 278.72 77.66&#10;  A 2.75 2.75 0.0 0 0 276.13 79.51&#10;  L 233.38 202.37&#10;  A 2.75 2.75 0.0 0 0 233.38 204.19&#10;  L 254.37 264.03&#10;  A 2.75 2.75 0.0 0 0 259.53 264.12&#10;  L 330.85 81.41&#10;  A 2.75 2.75 0.0 0 0 328.28 77.66&#10;  L 278.72 77.66"/>
<path stroke="#80accc" d="&#10;  M 369.65 77.65&#10;  A 1.71 1.71 0.0 0 0 368.23 80.31&#10;  L 502.70 280.95&#10;  A 1.71 1.71 0.0 0 0 504.12 281.71&#10;  L 549.28 281.71&#10;  A 1.71 1.71 0.0 0 0 550.70 279.05&#10;  L 416.22 78.41&#10;  A 1.71 1.71 0.0 0 0 414.80 77.65&#10;  L 369.65 77.65"/>
<path stroke="#80accc" d="&#10;  M 503.32 77.76&#10;  A 1.66 1.66 0.0 0 0 501.66 79.42&#10;  L 501.66 191.35&#10;  A 1.66 1.66 0.0 0 0 501.94 192.27&#10;  L 548.82 262.22&#10;  A 1.66 1.66 0.0 0 0 551.86 261.29&#10;  L 551.86 79.42&#10;  A 1.66 1.66 0.0 0 0 550.20 77.76&#10;  L 503.32 77.76"/>
<path stroke="#80accc" d="&#10;  M 414.97 281.84&#10;  A 1.95 1.95 0.0 0 0 416.92 279.89&#10;  L 416.92 166.25&#10;  A 1.95 1.95 0.0 0 0 416.59 165.17&#10;  L 370.07 95.76&#10;  A 1.95 1.95 0.0 0 0 366.50 96.84&#10;  L 366.50 279.89&#10;  A 1.95 1.95 0.0 0 0 368.45 281.84&#10;  L 414.97 281.84"/>
<path stroke="#80accc" d="&#10;  M 157.81 350.90&#10;  Q 157.66 336.70 157.81 311.03&#10;  Q 157.83 306.25 154.47 305.34&#10;  C 150.67 304.30 145.69 304.76 145.68 310.01&#10;  Q 145.67 347.98 145.66 356.00&#10;  Q 145.65 358.78 146.12 359.90&#10;  A 3.41 3.41 0.0 0 0 149.26 361.98&#10;  L 183.41 362.02&#10;  A 3.88 3.87 -89.9 0 0 187.29 358.14&#10;  L 187.29 356.96&#10;  A 4.41 4.41 0.0 0 0 182.88 352.55&#10;  L 159.48 352.55&#10;  A 1.67 1.67 0.0 0 1 157.81 350.90"/>
<path stroke="#80accc" d="&#10;  M 87.29 363.00&#10;  Q 87.77 362.34 87.79 361.36&#10;  Q 87.93 352.89 87.83 348.36&#10;  C 87.75 344.85 88.52 341.93 92.52 342.77&#10;  C 101.70 344.70 111.98 345.13 116.99 336.73&#10;  C 120.45 330.92 121.44 322.32 118.58 315.96&#10;  C 114.96 307.93 107.71 305.91 99.25 306.14&#10;  C 91.30 306.35 85.65 306.58 80.50 305.41&#10;  A 2.72 2.67 -39.8 0 0 79.77 305.35&#10;  Q 76.08 305.59 76.08 309.52&#10;  Q 76.09 346.74 76.06 355.96&#10;  Q 76.05 360.14 76.97 361.52&#10;  C 79.07 364.68 84.66 366.67 87.29 363.00"/>
<path stroke="#80accc" d="&#10;  M 223.21 350.69&#10;  A 2.65 2.64 17.3 0 1 225.92 349.27&#10;  C 232.51 350.16 240.54 351.14 243.42 357.67&#10;  Q 244.72 360.63 245.90 361.56&#10;  C 248.95 363.99 256.23 364.97 257.69 360.08&#10;  Q 258.15 358.53 256.73 354.79&#10;  Q 255.55 351.69 240.88 310.39&#10;  Q 239.73 307.15 235.86 305.67&#10;  C 233.25 304.67 229.90 305.72 227.43 306.70&#10;  Q 223.54 308.24 222.11 312.37&#10;  Q 207.84 353.41 207.45 354.71&#10;  Q 205.76 360.48 210.56 362.92&#10;  C 216.10 365.73 221.30 358.88 222.16 354.20&#10;  Q 222.57 351.95 223.21 350.69"/>
<path stroke="#80accc" d="&#10;  M 325.74 324.49&#10;  Q 327.41 323.55 327.23 321.76&#10;  Q 325.97 308.79 314.04 306.38&#10;  Q 303.20 304.18 293.77 306.43&#10;  C 283.75 308.81 280.97 318.22 283.50 327.27&#10;  C 285.09 332.99 289.93 335.39 295.47 337.28&#10;  Q 305.95 340.84 312.91 343.32&#10;  C 316.78 344.70 317.37 348.99 314.17 351.64&#10;  C 308.09 356.66 303.02 354.74 296.87 350.40&#10;  Q 295.02 349.09 289.42 345.33&#10;  C 285.73 342.85 280.88 345.06 281.36 349.73&#10;  Q 282.12 357.12 288.64 360.62&#10;  C 301.08 367.29 324.48 367.87 328.08 349.63&#10;  C 331.82 330.67 311.92 327.47 298.59 326.05&#10;  A 2.99 2.95 65.2 0 1 297.20 325.53&#10;  C 293.01 322.56 294.34 317.57 298.71 315.61&#10;  Q 303.89 313.28 308.95 315.90&#10;  Q 314.84 318.94 321.48 324.21&#10;  A 3.87 3.73 -40.1 0 0 325.74 324.49"/>
<path stroke="#80accc" d="&#10;  M 460.05 335.10&#10;  C 460.23 345.91 464.43 355.10 473.59 360.31&#10;  C 484.68 366.62 498.03 364.02 508.30 357.48&#10;  Q 513.71 354.04 512.90 347.28&#10;  C 512.48 343.72 509.27 341.81 506.17 343.86&#10;  Q 503.38 345.70 491.88 353.37&#10;  Q 489.59 354.89 487.70 354.40&#10;  C 477.70 351.82 475.16 344.09 475.00 334.84&#10;  C 474.84 325.59 477.12 317.78 487.02 314.85&#10;  Q 488.89 314.30 491.23 315.74&#10;  Q 502.99 323.01 505.84 324.75&#10;  C 509.01 326.70 512.15 324.68 512.45 321.10&#10;  Q 513.02 314.32 507.50 311.07&#10;  C 497.01 304.89 483.58 302.75 472.71 309.44&#10;  C 463.73 314.96 459.86 324.29 460.05 335.10"/>
<path stroke="#80accc" d="&#10;  M 435.1986 311.0291&#10;  A 5.37 5.37 0.0 0 0 429.8662 305.6218&#10;  L 426.7063 305.5997&#10;  A 5.37 5.37 0.0 0 0 421.2989 310.9321&#10;  L 420.9614 359.2709&#10;  A 5.37 5.37 0.0 0 0 426.2938 364.6782&#10;  L 429.4537 364.7003&#10;  A 5.37 5.37 0.0 0 0 434.8611 359.3679&#10;  L 435.1986 311.0291"/>
<path stroke="#80accc" d="&#10;  M 374.03 306.55&#10;  Q 363.02 306.68 356.75 306.50&#10;  C 352.51 306.38 349.98 307.26 349.93 311.76&#10;  C 349.89 315.94 352.15 316.48 355.96 316.35&#10;  Q 359.82 316.22 364.43 316.10&#10;  A 2.27 2.10 -34.3 0 1 365.18 316.21&#10;  Q 367.44 316.96 367.43 319.47&#10;  Q 367.35 344.07 368.19 358.57&#10;  C 368.43 362.70 370.69 364.46 374.71 364.41&#10;  C 378.72 364.37 380.94 362.56 381.09 358.42&#10;  Q 381.59 343.90 380.94 319.31&#10;  Q 380.87 316.80 383.11 316.00&#10;  A 2.27 2.10 33.0 0 1 383.86 315.87&#10;  Q 388.47 315.89 392.33 315.93&#10;  C 396.14 315.97 398.39 315.38 398.25 311.20&#10;  C 398.10 306.70 395.55 305.88 391.32 306.10&#10;  Q 385.05 306.42 374.03 306.55"/>
<path stroke="#80accc" d="&#10;  M 87.87 319.14&#10;  L 87.73 329.20&#10;  A 3.47 3.47 0.0 0 0 91.15 332.72&#10;  L 93.57 332.75&#10;  A 13.83 7.44 0.8 0 0 107.50 325.51&#10;  L 107.53 323.39&#10;  A 13.83 7.44 0.8 0 0 93.81 315.76&#10;  L 91.39 315.72&#10;  A 3.47 3.47 0.0 0 0 87.87 319.14"/>
<path stroke="#80accc" d="&#10;  M 228.43 341.02&#10;  L 235.13 340.90&#10;  A 1.35 1.35 0.0 0 0 236.45 339.53&#10;  L 236.45 339.32&#10;  A 16.40 4.61 89.0 0 0 231.55 323.00&#10;  L 231.37 323.00&#10;  A 16.40 4.61 89.0 0 0 227.05 339.48&#10;  L 227.05 339.69&#10;  A 1.35 1.35 0.0 0 0 228.43 341.02"/>
</g>
<path fill="#ffffff" d="&#10;  M 588.00 0.00&#10;  L 588.00 463.00&#10;  L 0.00 463.00&#10;  L 0.00 0.00&#10;  L 588.00 0.00&#10;  Z&#10;  M 88.9159 79.9359&#10;  A 2.47 2.47 0.0 0 0 86.4416 77.4702&#10;  L 40.6217 77.5501&#10;  A 2.47 2.47 0.0 0 0 38.1560 80.0244&#10;  L 38.5041 279.4641&#10;  A 2.47 2.47 0.0 0 0 40.9784 281.9298&#10;  L 86.7983 281.8499&#10;  A 2.47 2.47 0.0 0 0 89.2640 279.3756&#10;  L 88.9159 79.9359&#10;  Z&#10;  M 247.90 281.83&#10;  A 3.10 3.10 0.0 0 0 250.82 277.70&#10;  L 181.45 79.93&#10;  A 3.10 3.10 0.0 0 0 178.52 77.86&#10;  L 128.66 77.86&#10;  A 3.10 3.10 0.0 0 0 125.77 82.09&#10;  L 203.15 279.86&#10;  A 3.10 3.10 0.0 0 0 206.04 281.83&#10;  L 247.90 281.83&#10;  Z&#10;  M 278.72 77.66&#10;  A 2.75 2.75 0.0 0 0 276.13 79.51&#10;  L 233.38 202.37&#10;  A 2.75 2.75 0.0 0 0 233.38 204.19&#10;  L 254.37 264.03&#10;  A 2.75 2.75 0.0 0 0 259.53 264.12&#10;  L 330.85 81.41&#10;  A 2.75 2.75 0.0 0 0 328.28 77.66&#10;  L 278.72 77.66&#10;  Z&#10;  M 369.65 77.65&#10;  A 1.71 1.71 0.0 0 0 368.23 80.31&#10;  L 502.70 280.95&#10;  A 1.71 1.71 0.0 0 0 504.12 281.71&#10;  L 549.28 281.71&#10;  A 1.71 1.71 0.0 0 0 550.70 279.05&#10;  L 416.22 78.41&#10;  A 1.71 1.71 0.0 0 0 414.80 77.65&#10;  L 369.65 77.65&#10;  Z&#10;  M 503.32 77.76&#10;  A 1.66 1.66 0.0 0 0 501.66 79.42&#10;  L 501.66 191.35&#10;  A 1.66 1.66 0.0 0 0 501.94 192.27&#10;  L 548.82 262.22&#10;  A 1.66 1.66 0.0 0 0 551.86 261.29&#10;  L 551.86 79.42&#10;  A 1.66 1.66 0.0 0 0 550.20 77.76&#10;  L 503.32 77.76&#10;  Z&#10;  M 414.97 281.84&#10;  A 1.95 1.95 0.0 0 0 416.92 279.89&#10;  L 416.92 166.25&#10;  A 1.95 1.95 0.0 0 0 416.59 165.17&#10;  L 370.07 95.76&#10;  A 1.95 1.95 0.0 0 0 366.50 96.84&#10;  L 366.50 279.89&#10;  A 1.95 1.95 0.0 0 0 368.45 281.84&#10;  L 414.97 281.84&#10;  Z&#10;  M 157.81 350.90&#10;  Q 157.66 336.70 157.81 311.03&#10;  Q 157.83 306.25 154.47 305.34&#10;  C 150.67 304.30 145.69 304.76 145.68 310.01&#10;  Q 145.67 347.98 145.66 356.00&#10;  Q 145.65 358.78 146.12 359.90&#10;  A 3.41 3.41 0.0 0 0 149.26 361.98&#10;  L 183.41 362.02&#10;  A 3.88 3.87 -89.9 0 0 187.29 358.14&#10;  L 187.29 356.96&#10;  A 4.41 4.41 0.0 0 0 182.88 352.55&#10;  L 159.48 352.55&#10;  A 1.67 1.67 0.0 0 1 157.81 350.90&#10;  Z&#10;  M 87.29 363.00&#10;  Q 87.77 362.34 87.79 361.36&#10;  Q 87.93 352.89 87.83 348.36&#10;  C 87.75 344.85 88.52 341.93 92.52 342.77&#10;  C 101.70 344.70 111.98 345.13 116.99 336.73&#10;  C 120.45 330.92 121.44 322.32 118.58 315.96&#10;  C 114.96 307.93 107.71 305.91 99.25 306.14&#10;  C 91.30 306.35 85.65 306.58 80.50 305.41&#10;  A 2.72 2.67 -39.8 0 0 79.77 305.35&#10;  Q 76.08 305.59 76.08 309.52&#10;  Q 76.09 346.74 76.06 355.96&#10;  Q 76.05 360.14 76.97 361.52&#10;  C 79.07 364.68 84.66 366.67 87.29 363.00&#10;  Z&#10;  M 223.21 350.69&#10;  A 2.65 2.64 17.3 0 1 225.92 349.27&#10;  C 232.51 350.16 240.54 351.14 243.42 357.67&#10;  Q 244.72 360.63 245.90 361.56&#10;  C 248.95 363.99 256.23 364.97 257.69 360.08&#10;  Q 258.15 358.53 256.73 354.79&#10;  Q 255.55 351.69 240.88 310.39&#10;  Q 239.73 307.15 235.86 305.67&#10;  C 233.25 304.67 229.90 305.72 227.43 306.70&#10;  Q 223.54 308.24 222.11 312.37&#10;  Q 207.84 353.41 207.45 354.71&#10;  Q 205.76 360.48 210.56 362.92&#10;  C 216.10 365.73 221.30 358.88 222.16 354.20&#10;  Q 222.57 351.95 223.21 350.69&#10;  Z&#10;  M 325.74 324.49&#10;  Q 327.41 323.55 327.23 321.76&#10;  Q 325.97 308.79 314.04 306.38&#10;  Q 303.20 304.18 293.77 306.43&#10;  C 283.75 308.81 280.97 318.22 283.50 327.27&#10;  C 285.09 332.99 289.93 335.39 295.47 337.28&#10;  Q 305.95 340.84 312.91 343.32&#10;  C 316.78 344.70 317.37 348.99 314.17 351.64&#10;  C 308.09 356.66 303.02 354.74 296.87 350.40&#10;  Q 295.02 349.09 289.42 345.33&#10;  C 285.73 342.85 280.88 345.06 281.36 349.73&#10;  Q 282.12 357.12 288.64 360.62&#10;  C 301.08 367.29 324.48 367.87 328.08 349.63&#10;  C 331.82 330.67 311.92 327.47 298.59 326.05&#10;  A 2.99 2.95 65.2 0 1 297.20 325.53&#10;  C 293.01 322.56 294.34 317.57 298.71 315.61&#10;  Q 303.89 313.28 308.95 315.90&#10;  Q 314.84 318.94 321.48 324.21&#10;  A 3.87 3.73 -40.1 0 0 325.74 324.49&#10;  Z&#10;  M 460.05 335.10&#10;  C 460.23 345.91 464.43 355.10 473.59 360.31&#10;  C 484.68 366.62 498.03 364.02 508.30 357.48&#10;  Q 513.71 354.04 512.90 347.28&#10;  C 512.48 343.72 509.27 341.81 506.17 343.86&#10;  Q 503.38 345.70 491.88 353.37&#10;  Q 489.59 354.89 487.70 354.40&#10;  C 477.70 351.82 475.16 344.09 475.00 334.84&#10;  C 474.84 325.59 477.12 317.78 487.02 314.85&#10;  Q 488.89 314.30 491.23 315.74&#10;  Q 502.99 323.01 505.84 324.75&#10;  C 509.01 326.70 512.15 324.68 512.45 321.10&#10;  Q 513.02 314.32 507.50 311.07&#10;  C 497.01 304.89 483.58 302.75 472.71 309.44&#10;  C 463.73 314.96 459.86 324.29 460.05 335.10&#10;  Z&#10;  M 435.1986 311.0291&#10;  A 5.37 5.37 0.0 0 0 429.8662 305.6218&#10;  L 426.7063 305.5997&#10;  A 5.37 5.37 0.0 0 0 421.2989 310.9321&#10;  L 420.9614 359.2709&#10;  A 5.37 5.37 0.0 0 0 426.2938 364.6782&#10;  L 429.4537 364.7003&#10;  A 5.37 5.37 0.0 0 0 434.8611 359.3679&#10;  L 435.1986 311.0291&#10;  Z&#10;  M 374.03 306.55&#10;  Q 363.02 306.68 356.75 306.50&#10;  C 352.51 306.38 349.98 307.26 349.93 311.76&#10;  C 349.89 315.94 352.15 316.48 355.96 316.35&#10;  Q 359.82 316.22 364.43 316.10&#10;  A 2.27 2.10 -34.3 0 1 365.18 316.21&#10;  Q 367.44 316.96 367.43 319.47&#10;  Q 367.35 344.07 368.19 358.57&#10;  C 368.43 362.70 370.69 364.46 374.71 364.41&#10;  C 378.72 364.37 380.94 362.56 381.09 358.42&#10;  Q 381.59 343.90 380.94 319.31&#10;  Q 380.87 316.80 383.11 316.00&#10;  A 2.27 2.10 33.0 0 1 383.86 315.87&#10;  Q 388.47 315.89 392.33 315.93&#10;  C 396.14 315.97 398.39 315.38 398.25 311.20&#10;  C 398.10 306.70 395.55 305.88 391.32 306.10&#10;  Q 385.05 306.42 374.03 306.55&#10;  Z"/>
<rect fill="#015999" x="-25.38" y="-102.19" transform="translate(63.71,179.70) rotate(-0.1)" width="50.76" height="204.38" rx="2.47"/>
<path fill="#015999" d="&#10;  M 247.90 281.83&#10;  L 206.04 281.83&#10;  A 3.10 3.10 0.0 0 1 203.15 279.86&#10;  L 125.77 82.09&#10;  A 3.10 3.10 0.0 0 1 128.66 77.86&#10;  L 178.52 77.86&#10;  A 3.10 3.10 0.0 0 1 181.45 79.93&#10;  L 250.82 277.70&#10;  A 3.10 3.10 0.0 0 1 247.90 281.83&#10;  Z"/>
<path fill="#015999" d="&#10;  M 278.72 77.66&#10;  L 328.28 77.66&#10;  A 2.75 2.75 0.0 0 1 330.85 81.41&#10;  L 259.53 264.12&#10;  A 2.75 2.75 0.0 0 1 254.37 264.03&#10;  L 233.38 204.19&#10;  A 2.75 2.75 0.0 0 1 233.38 202.37&#10;  L 276.13 79.51&#10;  A 2.75 2.75 0.0 0 1 278.72 77.66&#10;  Z"/>
<path fill="#015999" d="&#10;  M 369.65 77.65&#10;  L 414.80 77.65&#10;  A 1.71 1.71 0.0 0 1 416.22 78.41&#10;  L 550.70 279.05&#10;  A 1.71 1.71 0.0 0 1 549.28 281.71&#10;  L 504.12 281.71&#10;  A 1.71 1.71 0.0 0 1 502.70 280.95&#10;  L 368.23 80.31&#10;  A 1.71 1.71 0.0 0 1 369.65 77.65&#10;  Z"/>
<path fill="#015999" d="&#10;  M 503.32 77.76&#10;  L 550.20 77.76&#10;  A 1.66 1.66 0.0 0 1 551.86 79.42&#10;  L 551.86 261.29&#10;  A 1.66 1.66 0.0 0 1 548.82 262.22&#10;  L 501.94 192.27&#10;  A 1.66 1.66 0.0 0 1 501.66 191.35&#10;  L 501.66 79.42&#10;  A 1.66 1.66 0.0 0 1 503.32 77.76&#10;  Z"/>
<path fill="#015999" d="&#10;  M 414.97 281.84&#10;  L 368.45 281.84&#10;  A 1.95 1.95 0.0 0 1 366.50 279.89&#10;  L 366.50 96.84&#10;  A 1.95 1.95 0.0 0 1 370.07 95.76&#10;  L 416.59 165.17&#10;  A 1.95 1.95 0.0 0 1 416.92 166.25&#10;  L 416.92 279.89&#10;  A 1.95 1.95 0.0 0 1 414.97 281.84&#10;  Z"/>
<path fill="#015999" d="&#10;  M 157.81 350.90&#10;  A 1.67 1.67 0.0 0 0 159.48 352.55&#10;  L 182.88 352.55&#10;  A 4.41 4.41 0.0 0 1 187.29 356.96&#10;  L 187.29 358.14&#10;  A 3.88 3.87 -89.9 0 1 183.41 362.02&#10;  L 149.26 361.98&#10;  A 3.41 3.41 0.0 0 1 146.12 359.90&#10;  Q 145.65 358.78 145.66 356.00&#10;  Q 145.67 347.98 145.68 310.01&#10;  C 145.69 304.76 150.67 304.30 154.47 305.34&#10;  Q 157.83 306.25 157.81 311.03&#10;  Q 157.66 336.70 157.81 350.90&#10;  Z"/>
<path fill="#015999" d="&#10;  M 87.29 363.00&#10;  C 84.66 366.67 79.07 364.68 76.97 361.52&#10;  Q 76.05 360.14 76.06 355.96&#10;  Q 76.09 346.74 76.08 309.52&#10;  Q 76.08 305.59 79.77 305.35&#10;  A 2.72 2.67 -39.8 0 1 80.50 305.41&#10;  C 85.65 306.58 91.30 306.35 99.25 306.14&#10;  C 107.71 305.91 114.96 307.93 118.58 315.96&#10;  C 121.44 322.32 120.45 330.92 116.99 336.73&#10;  C 111.98 345.13 101.70 344.70 92.52 342.77&#10;  C 88.52 341.93 87.75 344.85 87.83 348.36&#10;  Q 87.93 352.89 87.79 361.36&#10;  Q 87.77 362.34 87.29 363.00&#10;  Z&#10;  M 87.87 319.14&#10;  L 87.73 329.20&#10;  A 3.47 3.47 0.0 0 0 91.15 332.72&#10;  L 93.57 332.75&#10;  A 13.83 7.44 0.8 0 0 107.50 325.51&#10;  L 107.53 323.39&#10;  A 13.83 7.44 0.8 0 0 93.81 315.76&#10;  L 91.39 315.72&#10;  A 3.47 3.47 0.0 0 0 87.87 319.14&#10;  Z"/>
<path fill="#015999" d="&#10;  M 223.21 350.69&#10;  Q 222.57 351.95 222.16 354.20&#10;  C 221.30 358.88 216.10 365.73 210.56 362.92&#10;  Q 205.76 360.48 207.45 354.71&#10;  Q 207.84 353.41 222.11 312.37&#10;  Q 223.54 308.24 227.43 306.70&#10;  C 229.90 305.72 233.25 304.67 235.86 305.67&#10;  Q 239.73 307.15 240.88 310.39&#10;  Q 255.55 351.69 256.73 354.79&#10;  Q 258.15 358.53 257.69 360.08&#10;  C 256.23 364.97 248.95 363.99 245.90 361.56&#10;  Q 244.72 360.63 243.42 357.67&#10;  C 240.54 351.14 232.51 350.16 225.92 349.27&#10;  A 2.65 2.64 17.3 0 0 223.21 350.69&#10;  Z&#10;  M 228.43 341.02&#10;  L 235.13 340.90&#10;  A 1.35 1.35 0.0 0 0 236.45 339.53&#10;  L 236.45 339.32&#10;  A 16.40 4.61 89.0 0 0 231.55 323.00&#10;  L 231.37 323.00&#10;  A 16.40 4.61 89.0 0 0 227.05 339.48&#10;  L 227.05 339.69&#10;  A 1.35 1.35 0.0 0 0 228.43 341.02&#10;  Z"/>
<path fill="#015999" d="&#10;  M 325.74 324.49&#10;  A 3.87 3.73 -40.1 0 1 321.48 324.21&#10;  Q 314.84 318.94 308.95 315.90&#10;  Q 303.89 313.28 298.71 315.61&#10;  C 294.34 317.57 293.01 322.56 297.20 325.53&#10;  A 2.99 2.95 65.2 0 0 298.59 326.05&#10;  C 311.92 327.47 331.82 330.67 328.08 349.63&#10;  C 324.48 367.87 301.08 367.29 288.64 360.62&#10;  Q 282.12 357.12 281.36 349.73&#10;  C 280.88 345.06 285.73 342.85 289.42 345.33&#10;  Q 295.02 349.09 296.87 350.40&#10;  C 303.02 354.74 308.09 356.66 314.17 351.64&#10;  C 317.37 348.99 316.78 344.70 312.91 343.32&#10;  Q 305.95 340.84 295.47 337.28&#10;  C 289.93 335.39 285.09 332.99 283.50 327.27&#10;  C 280.97 318.22 283.75 308.81 293.77 306.43&#10;  Q 303.20 304.18 314.04 306.38&#10;  Q 325.97 308.79 327.23 321.76&#10;  Q 327.41 323.55 325.74 324.49&#10;  Z"/>
<path fill="#015999" d="&#10;  M 475.00 334.84&#10;  C 475.16 344.09 477.70 351.82 487.70 354.40&#10;  Q 489.59 354.89 491.88 353.37&#10;  Q 503.38 345.70 506.17 343.86&#10;  C 509.27 341.81 512.48 343.72 512.90 347.28&#10;  Q 513.71 354.04 508.30 357.48&#10;  C 498.03 364.02 484.68 366.62 473.59 360.31&#10;  C 464.43 355.10 460.23 345.91 460.05 335.10&#10;  C 459.86 324.29 463.73 314.96 472.71 309.44&#10;  C 483.58 302.75 497.01 304.89 507.50 311.07&#10;  Q 513.02 314.32 512.45 321.10&#10;  C 512.15 324.68 509.01 326.70 505.84 324.75&#10;  Q 502.99 323.01 491.23 315.74&#10;  Q 488.89 314.30 487.02 314.85&#10;  C 477.12 317.78 474.84 325.59 475.00 334.84&#10;  Z"/>
<rect fill="#015999" x="-6.95" y="-29.54" transform="translate(428.08,335.15) rotate(0.4)" width="13.90" height="59.08" rx="5.37"/>
<path fill="#015999" d="&#10;  M 374.71 364.41&#10;  C 370.69 364.46 368.43 362.70 368.19 358.57&#10;  Q 367.35 344.07 367.43 319.47&#10;  Q 367.44 316.96 365.18 316.21&#10;  A 2.27 2.10 -34.3 0 0 364.43 316.10&#10;  Q 359.82 316.22 355.96 316.35&#10;  C 352.15 316.48 349.89 315.94 349.93 311.76&#10;  C 349.98 307.26 352.51 306.38 356.75 306.50&#10;  Q 363.02 306.68 374.03 306.55&#10;  Q 385.05 306.42 391.32 306.10&#10;  C 395.55 305.88 398.10 306.70 398.25 311.20&#10;  C 398.39 315.38 396.14 315.97 392.33 315.93&#10;  Q 388.47 315.89 383.86 315.87&#10;  A 2.27 2.10 33.0 0 0 383.11 316.00&#10;  Q 380.87 316.80 380.94 319.31&#10;  Q 381.59 343.90 381.09 358.42&#10;  C 380.94 362.56 378.72 364.37 374.71 364.41&#10;  Z"/>
<path fill="#ffffff" d="&#10;  M 87.87 319.14&#10;  A 3.47 3.47 0.0 0 1 91.39 315.72&#10;  L 93.81 315.76&#10;  A 13.83 7.44 0.8 0 1 107.53 323.39&#10;  L 107.50 325.51&#10;  A 13.83 7.44 0.8 0 1 93.57 332.75&#10;  L 91.15 332.72&#10;  A 3.47 3.47 0.0 0 1 87.73 329.20&#10;  L 87.87 319.14&#10;  Z"/>
<path fill="#ffffff" d="&#10;  M 228.43 341.02&#10;  A 1.35 1.35 0.0 0 1 227.05 339.69&#10;  L 227.05 339.48&#10;  A 16.40 4.61 89.0 0 1 231.37 323.00&#10;  L 231.55 323.00&#10;  A 16.40 4.61 89.0 0 1 236.45 339.32&#10;  L 236.45 339.53&#10;  A 1.35 1.35 0.0 0 1 235.13 340.90&#10;  L 228.43 341.02&#10;  Z"/>
</svg>